<svg xmlns="http://www.w3.org/2000/svg" height="512.00009" width="512" style=""><rect id="backgroundrect" width="100%" height="100%" x="0" y="0" fill="none" stroke="none"/><g class="currentLayer" style=""><title>Layer 1</title><path d="m77.542969 457.144531c-6.460938 0-12.871094-1.195312-18.898438-3.53125l6.695313 35.96875c2.410156 12.992188 13.746094 22.414063 26.960937 22.417969h140.359375c13.214844-.003906 24.550782-9.425781 26.964844-22.417969l6.691406-35.96875c-6.027344 2.335938-12.433594 3.53125-18.898437 3.53125zm0 0" id="svg_1" class="selected" fill="#ffffff" fill-opacity="1"/><path d="m135.050781 338.285156h54.867188v18.285156h-54.867188zm0 0" id="svg_2" class="" fill="#ffffff" fill-opacity="1"/><path d="m197.40625 118.855469c-8.714844 0-16.21875-6.152344-17.929688-14.699219l-6.207031-31.011719h-21.578125l-6.207031 31.019531c-1.710937 8.542969-9.214844 14.691407-17.929687 14.691407h-21.328126l-6.101562 36.574219h25.054688c5.09375 0 9.957031 2.125 13.417968 5.863281 3.460938 3.738281 5.203125 8.75 4.8125 13.828125l-7.625 99.164062h53.394532l-7.625-99.171875c-.390626-5.078125 1.355468-10.085937 4.816406-13.824219 3.457031-3.734374 8.320312-5.859374 13.414062-5.859374h25.039063l-6.085938-36.574219zm0 0" id="svg_3" class="" fill="#ffffff" fill-opacity="1"/><path d="m104.660156 36.570312-67.535156 101.3125 50.632812 264.402344h149.449219l50.632813-264.410156-67.539063-101.304688zm103.535156 320c0 10.101563-8.1875 18.285157-18.285156 18.285157h-54.859375c-10.097656 0-18.285156-8.183594-18.285156-18.285157v-18.285156c0-10.097656 8.1875-18.285156 18.285156-18.285156h54.859375c10.097656 0 18.285156 8.1875 18.285156 18.285156zm28.570313-240.722656 6.097656 36.574219c.886719 5.300781-.609375 10.722656-4.082031 14.828125-3.476562 4.101562-8.578125 6.464844-13.957031 6.464844h-25.039063l7.625 99.171875c.386719 5.078125-1.355468 10.085937-4.816406 13.824219-3.460938 3.734374-8.324219 5.859374-13.414062 5.859374h-53.394532c-5.09375 0-9.957031-2.125-13.417968-5.863281-3.460938-3.738281-5.207032-8.75-4.8125-13.828125l7.625-99.164062h-25.042969c-5.375 0-10.480469-2.363282-13.957031-6.464844-3.472657-4.105469-4.96875-9.527344-4.082032-14.828125l6.097656-36.574219c1.441407-8.828125 9.082032-15.304687 18.03125-15.277344h21.328126l6.207031-31.019531c1.714843-8.542969 9.21875-14.695312 17.929687-14.695312h21.578125c8.714844.003906 16.21875 6.15625 17.929688 14.703125l6.207031 31.011718h21.332031c8.945313-.027343 16.585938 6.449219 18.027344 15.277344zm0 0" id="svg_4" class="" fill="#ffffff" fill-opacity="1"/><path d="m320.339844 120.6875-72.328125-108.472656c-5.078125-7.640625-13.648438-12.2265628-22.820313-12.214844h-125.421875c-9.1875-.0234375-17.769531 4.566406-22.855469 12.214844l-72.292968 108.472656c-3.980469 5.9375-5.472656 13.203125-4.152344 20.230469l53.414062 287.085937c5.667969 7.230469 14.484376 11.273438 23.660157 10.851563h169.875c9.179687.417969 17.996093-3.632813 23.660156-10.867188l53.414063-287.085937c1.316406-7.023438-.175782-14.28125-4.152344-20.214844zm-66.59375 292.460938c-.824219 4.308593-4.59375 7.421874-8.980469 7.421874h-164.570313c-4.386718 0-8.152343-3.113281-8.976562-7.421874l-52.757812-275.503907c-.449219-2.355469.042968-4.796875 1.375-6.792969l72.328124-108.496093c1.695313-2.542969 4.550782-4.070313 7.605469-4.070313h125.421875c3.058594 0 5.910156 1.527344 7.605469 4.070313l72.3125 108.496093c1.335937 1.992188 1.828125 4.429688 1.371094 6.785157zm0 0" id="svg_5" class="" fill="#ffffff" fill-opacity="1"/></g></svg>