<svg id="Layer_1" enable-background="new 0 0 512 512" height="512" viewBox="0 0 512 512" width="512" xmlns="http://www.w3.org/2000/svg"><path d="m256 80c4.418 0 8-3.581 8-8v-64c0-4.418-3.582-8-8-8s-8 3.582-8 8v64c0 4.419 3.582 8 8 8z"/><path d="m256 432c-4.418 0-8 3.582-8 8v64c0 4.418 3.582 8 8 8s8-3.582 8-8v-64c0-4.418-3.582-8-8-8z"/><path d="m504 248h-64.001c-4.418 0-8 3.581-8 8 0 4.418 3.582 8 8 8h64.001c4.418 0 8-3.582 8-8 0-4.419-3.582-8-8-8z"/><path d="m79.999 256c0-4.419-3.582-8-8-8h-63.999c-4.418 0-8 3.581-8 8 0 4.418 3.582 8 8 8h63.999c4.418 0 8-3.582 8-8z"/><path d="m122.342 133.657c3.125 3.125 8.189 3.124 11.314 0 3.124-3.124 3.124-8.189 0-11.313l-56-56c-3.125-3.124-8.189-3.124-11.314 0-3.124 3.124-3.124 8.189 0 11.313z"/><path d="m383.999 136c2.048 0 4.095-.781 5.657-2.343l56-56c3.124-3.124 3.124-8.189 0-11.313-3.125-3.124-8.189-3.124-11.314 0l-56 56c-5.056 5.055-1.405 13.656 5.657 13.656z"/><path d="m389.656 378.343c-3.125-3.124-8.189-3.124-11.314 0-3.124 3.124-3.124 8.189 0 11.313l56 56c1.563 1.562 3.609 2.343 5.657 2.343 7.061 0 10.714-8.6 5.657-13.657z"/><path d="m122.342 378.343-56 56c-3.124 3.124-3.124 8.189 0 11.313 3.125 3.125 8.189 3.124 11.314 0l56-56c3.124-3.124 3.124-8.189 0-11.313-3.125-3.124-8.189-3.124-11.314 0z"/><path d="m255.999 96c-88.225 0-160 71.776-160 160s71.775 160 160 160 160-71.776 160-160-71.775-160-160-160z"/></svg>