<?xml version="1.0" encoding="iso-8859-1"?>
<!-- Generator: Adobe Illustrator 19.0.0, SVG Export Plug-In . SVG Version: 6.00 Build 0)  -->
<svg version="1.1" id="Capa_1" xmlns="http://www.w3.org/2000/svg" xmlns:xlink="http://www.w3.org/1999/xlink" x="0px" y="0px"
	 viewBox="0 0 512 512" style="enable-background:new 0 0 512 512;" xml:space="preserve">
<g>
	<g>
		<path d="M477.702,248.499c-4.141-7.174-13.316-9.636-20.49-5.49L415.47,267.11c-7.174,4.143-9.633,13.316-5.49,20.49
			c2.778,4.812,7.82,7.503,13.004,7.503c2.545,0,5.125-0.648,7.486-2.013l41.742-24.101
			C479.386,264.846,481.845,255.673,477.702,248.499z"/>
	</g>
</g>
<g>
	<g>
		<path d="M384,154.798c-7.175-4.144-16.35-1.684-20.49,5.49l-24.1,41.743c-4.141,7.175-1.684,16.349,5.492,20.49
			c2.361,1.364,4.939,2.013,7.484,2.013c5.185,0,10.227-2.691,13.006-7.503l24.098-41.743
			C393.633,168.113,391.174,158.939,384,154.798z"/>
	</g>
</g>
<g>
	<g>
		<path d="M255.999,120.501c-8.284,0-15,6.716-15,15v48.2c0,8.284,6.716,15,15,15s15-6.716,15-15v-48.2
			C270.999,127.217,264.283,120.501,255.999,120.501z"/>
	</g>
</g>
<g>
	<g>
		<path d="M172.589,202.031l-24.1-41.742c-4.142-7.175-13.316-9.635-20.49-5.49c-7.174,4.142-9.633,13.316-5.49,20.49l24.1,41.742
			c2.778,4.813,7.82,7.503,13.004,7.503c2.545,0,5.125-0.648,7.486-2.013C174.273,218.379,176.732,209.206,172.589,202.031z"/>
	</g>
</g>
<g>
	<g>
		<path d="M96.53,267.113l-41.742-24.101c-7.175-4.144-16.349-1.685-20.49,5.49c-4.142,7.174-1.685,16.348,5.49,20.49l41.742,24.101
			c2.362,1.364,4.94,2.013,7.485,2.013c5.185,0,10.227-2.69,13.005-7.503C106.162,280.429,103.705,271.255,96.53,267.113z"/>
	</g>
</g>
<g>
	<g>
		<path d="M497,361.499H366.386C359.037,307.142,312.339,265.1,256,265.1c-56.34,0-103.038,42.042-110.387,96.399H15
			c-8.284,0-15,6.716-15,15s6.716,15,15,15h482c8.284,0,15-6.716,15-15C512,368.215,505.284,361.499,497,361.499z"/>
	</g>
</g>
<g>
</g>
<g>
</g>
<g>
</g>
<g>
</g>
<g>
</g>
<g>
</g>
<g>
</g>
<g>
</g>
<g>
</g>
<g>
</g>
<g>
</g>
<g>
</g>
<g>
</g>
<g>
</g>
<g>
</g>
</svg>
